<svg width="16" height="16" viewBox="0 0 16 16" xmlns="http://www.w3.org/2000/svg" xmlns:sketch="http://www.bohemiancoding.com/sketch/ns"><title>Untitled</title><desc>Created with Sketch.</desc><path d="M15.915 6.54c.058-.167.085-.339.085-.509 0-.513-.253-1.009-.703-1.321-1.436-.994-1.245-.744-1.786-2.362-.227-.675-.879-1.132-1.616-1.132h-.005c-1.769.006-1.462.101-2.889-.902-.298-.209-.65-.314-1.001-.314-.352 0-.703.104-1.001.314-1.438 1.01-1.124.909-2.889.902h-.005c-.736 0-1.389.456-1.615 1.132-.542 1.621-.356 1.37-1.786 2.362-.451.313-.704.808-.704 1.322 0 .169.028.341.085.508.554 1.619.553 1.308 0 2.92-.057.168-.085.339-.085.508 0 .514.253 1.01.704 1.322 1.43.994 1.245.742 1.786 2.363.225.674.878 1.131 1.615 1.131h.005c1.769-.007 1.462-.102 2.889.902.298.209.65.314 1.001.314.352 0 .703-.105 1.001-.314 1.427-1.003 1.119-.908 2.889-.902h.005c.736 0 1.389-.457 1.616-1.131.54-1.618.35-1.368 1.786-2.363.45-.312.703-.808.703-1.321 0-.17-.027-.341-.085-.509-.554-1.618-.551-1.308 0-2.92zm-8.915 4.627l-3-2.909 1.239-1.238 1.761 1.67 3.761-3.855 1.239 1.238-5 5.095z" fill="#BA5757" sketch:type="MSShapeGroup"/></svg>